<?xml version="1.0" encoding="UTF-8"?>
<svg xmlns="http://www.w3.org/2000/svg" version="1.1" viewBox="0 0 5436.5 2000">
  <defs>
    <style>
      .cls-1, .cls-2 {
        fill: #1d1d1b;
      }

      .cls-3 {
        fill: none;
        stroke: #1d71b8;
        stroke-linecap: round;
        stroke-miterlimit: 10;
        stroke-width: 30px;
      }

      .cls-3, .cls-4, .cls-5, .cls-2 {
        display: none;
      }

      .cls-4 {
        fill: #067068;
      }

      .cls-5 {
        fill: #fff;
      }

      .cls-6 {
        fill: #1d71b8;
      }
    </style>
  </defs>
  <!-- Generator: Adobe Illustrator 28.7.5, SVG Export Plug-In . SVG Version: 1.2.0 Build 176)  -->
  <g>
    <g id="Layer_1">
      <rect class="cls-4" width="2000" height="2000"/>
      <g>
        <path class="cls-2" d="M1627.8,1405.1c-73-45.2-153.4-50.2-234.6-30.5-56,13.6-110.4,34-165.1,52.5-66,22.3-132.1,43.2-202.2,48.5-100.6,7.7-196.2-9.4-285.4-57-56.6-30.2-100.3-73.7-125.6-133.8-10.5-24.9-13.5-50.9-9.6-77.4,5-34.1,25-71,81.5-76.9-45.2-51.7-127.1-46.8-165.9,10-32.2,47.1-33,99.7-19,152.5,19.3,73.3,63.4,130.4,123.2,175.7,94.7,71.7,203.6,104.9,320.7,112.5,78.1,5.1,155.3-3.6,229.9-27.7,67.7-21.8,134.5-46.1,202.1-68.4,53.5-17.6,107.9-25.5,163.1-7.6,82,26.5,125.1,119.2,92.5,198.2-9.4,22.8-24.5,41.1-44,57.7,74-3.1,136.7-76.1,138.8-151.5,2.2-79-35.6-136.6-100.5-176.8Z"/>
        <path class="cls-1" d="M719.6,531.1c67.8,35.1,140,44.2,214.8,33.5,54.6-7.9,95.7-38.6,130.1-84.5-5.6.5-8.4.7-11.2,1.1-85,12.4-168.8,6-251.5-15.9-22-5.8-43.2-13.7-59.8-30.7-15.4-15.8-19.7-39-9.4-54.3,12.4-18.4,38.5-20.6,57.8-4.4,8.4,7,15.6,15.5,24.2,22,26.5,19.9,57.9,26.5,89.7,31,48.3,7,96.9,6.8,145.4,2.3,35.5-3.3,70.9-9.1,102.6-26.5,22.3-12.2,43.2-27,64.2-41.4,42.3-29.2,87.7-36,136.2-19.1,21.3,7.4,39.2,20.4,53.9,38-10.1-94.5-52.1-169.5-135.7-217.2-76-43.4-155.6-43.8-240-14.7,11.2,5.2,19.3,8.6,27.1,12.8,39.5,21.1,80.2,38,125,44.7,20.8,3.1,41,11.5,61.1,18.5,6.2,2.2,11.2,8.1,19.1,14.1-11.6,1.1-19.6,1.5-27.4,2.7-37.8,5.8-66.2,27.9-93.5,52.8-12.9,11.7-28.4,22.2-44.6,28.2-71.2,26.1-143,23.3-213.8-2.4-28.1-10.2-54.7-24.9-83-34.1-93.5-30.6-183.5,45.1-159.7,146.8,10.5,44.7,38.5,76,78.5,96.8Z"/>
        <path class="cls-1" d="M1458.3,930.3c-3.5-3.5-6.8-8.8-7.2-13.6-1.1-10.8-.3-21.7-.3-33.2-38.7-6.9-69.3,5.7-94.8,33.4-1.6-.4-3.1-.7-4.7-1.1,1.5-13.8,1-28.2,5-41.2,10.3-34,42.1-53.1,82.8-52,7,.2,14,0,22.2,0-5.4-14.5-10-27.9-15.6-40.8-1.2-2.7-5.9-5.2-9.1-5.5-67.6-6.5-133.4,53.6-134.1,121.3-.4,42.6,16.5,77.2,47.2,105,17.6,16,37.9,29,56.6,43.8,11.7,9.3,22.8,19.4,34.2,29.1-45.5,4.1-86.8-4.1-124.5-25.9-34.7-20-70.7-35.6-110.2-43.1-17-3.3-34-7.6-50.4-13.2-82.6-27.9-118.6-112.4-88.7-186.3.8-2.1.9-4.5,1.3-6.8-.9.6-1.8,1.1-2.7,1.7-15.7-16.7-31.3-33.3-47.3-50.3.9-.5,0-.2-.5.3-1.1,1.2-2.1,2.5-3.1,3.7-27.2,33.8-42.3,72.9-44.4,115.7-4,82.8,30.6,146.5,100.9,190.2,39.2,24.4,83.3,33.3,128.5,36.1,56.4,3.4,107.5,19.1,154,52.3,58.7,41.9,124.6,59,196.7,47.9,28.7-4.4,56.3-12.5,81.1-31.2-25-8.7-45.7-21.4-62.2-40.7-21.5-25.3-31.4-55.1-35.2-87.6-4.7-40.9-23.1-73.7-58.7-95.9-5.8-3.6-12-7.1-16.8-11.9Z"/>
        <path class="cls-1" d="M1352.6,406.6c-32.1-3.8-60.8,4.6-87.5,22-37,24-74.2,47.7-111.2,71.5-2.4,1.5-4.5,3.5-9.2,7.2,41.6-3.2,79.9-6.6,118.2-8.9,23.4-1.4,47-3.2,70.2-1,23.7,2.2,39.4,16.9,45.3,41.1,8.1,32.9-5.3,66.6-35.8,84.1-48.2,27.6-98.5,26.8-146.2,1.3-38.2-20.5-77.3-15.3-119.1-16,12.5,66.1,51.9,106.6,111.1,130.7-60.1,41.6-78.5,99.4-61.1,147.9,13.7,38.1,64.3,74.3,101.8,72.5-11.4-30.1-13.6-60.8-4.9-91.7,16-56.8,56.4-91.2,108.1-113.9,9.6-4.2,12.5-8.7,11.7-18.4-1.2-16.2,2.4-31.5,11.9-44.9,2.6-3.7,6.8-7.9,10.8-8.6,10.2-1.6,20.7-1.4,32.1-1.9-2.7,11.2-5,20.6-7.3,30.2h103.4c-1.6-4.2-2.6-7.2-3.9-10.1-21-47.8-41.2-96-63.3-143.3-7.9-16.7-10.1-31.4-1.9-48.2,2.4-4.9,3.5-12.3,1.7-17.1-6.2-16.2-13.3-32.2-21.3-47.6-11.2-21.6-29.2-33.9-53.7-36.8Z"/>
        <path class="cls-1" d="M638.4,895.2c25.3-15.3,48.1-35.6,69.5-56.2,35.1-33.6,71.5-64.6,118.6-80.1,10.5-3.5,21.1-6.9,33.3-10.8-17.7-28.2-26.6-57.9-25.7-90.6-2.9,0-4.9-.1-6.8,0-2.8.3-5.6.6-8.4,1.1-86.5,15.9-156.6,58.5-210.1,128.6-11.9,15.6-26.1,28.6-46.9,32.2-27.3,4.8-53.7-14.8-53.3-42.3.2-11.4,6.2-22.6,10-35-18.4.7-36,7.8-49.2,23.5-24.5,29.1-22.6,74.9,3.8,106,38,44.9,110.4,56.6,165.3,23.4Z"/>
        <path class="cls-1" d="M636.8,648.6c47.7,7,87.9-10.1,126.8-40.8-110.5-23.5-178.6-82.7-182.2-201.4-4.2,3.9-7.6,6.6-10.3,9.9-36.6,43.1-49.8,92.3-32.5,146.6,15.1,47.4,47.1,78.3,98.3,85.8Z"/>
        <path class="cls-1" d="M898.3,266.3c51.6,22.7,104.2,28.2,158.4,12,19.9-5.9,37.7-16,49.6-30.5-36.4-16.6-72.4-32.7-108.2-49.4-34.9-16.4-71.5-22.6-109.8-19.7-42.7,3.3-80.2,19.2-114.1,47,12.7,1.8,24.8,1.5,35.4,5.3,29.9,10.8,59.5,22.5,88.6,35.3Z"/>
        <path class="cls-2" d="M1172.4,1209.5c-13.9-4.1-27.3-9.9-41.5-15.1-32.3,62.4-15.3,144.8,38.5,187.2,2.5,1.9,6.8,3.5,9.6,2.7,8-2.3,15.5-5.9,23.9-9.3-24.4-54.7-16.4-106.2,13.4-155.4-15.8-3.5-30.1-6-43.9-10Z"/>
        <path class="cls-1" d="M1203.5,587h103.3c-20.1-42.7-82.2-29.4-103.3,0Z"/>
      </g>
      <g>
        <circle class="cls-1" cx="1795.5" cy="1890.5" r="28.7" transform="translate(-691.2 1106.9) rotate(-29)"/>
        <circle class="cls-1" cx="1699.4" cy="1892.6" r="32.6" transform="translate(-844.2 1901.7) rotate(-48.3)"/>
        <circle class="cls-1" cx="1611.2" cy="1867.3" r="32.6" transform="translate(-703.1 1014.7) rotate(-29)"/>
        <circle class="cls-1" cx="1532.5" cy="1814.7" r="38" transform="translate(-547.2 667.2) rotate(-20.9)"/>
        <circle class="cls-1" cx="1461.9" cy="1722" r="46.4" transform="translate(-525.5 648.3) rotate(-21.3)"/>
        <circle class="cls-1" cx="1406.4" cy="1591.4" r="52.8" transform="translate(-670 2037.6) rotate(-60.7)"/>
        <circle class="cls-1" cx="1347.3" cy="1459.4" r="46.4" transform="translate(-202.8 217.6) rotate(-8.6)"/>
        <circle class="cls-1" cx="1278.3" cy="1367.3" r="38" transform="translate(-593.5 1364.5) rotate(-46.8)"/>
        <circle class="cls-1" cx="1198" cy="1314.3" r="32.6" transform="translate(-486.8 745.2) rotate(-29)"/>
        <path class="cls-6" d="M1621.9,1497.1c-15.3-4.4-24.1-20.3-19.7-35.6,4.4-15.3,20.3-24.1,35.6-19.7,15.3,4.4,24.1,20.3,19.7,35.6-4.4,15.3-20.3,24.1-35.6,19.7Z"/>
        <circle class="cls-6" cx="1522.7" cy="1510" r="24.5" transform="translate(-541 927) rotate(-29)"/>
        <circle class="cls-6" cx="1286.4" cy="1671.7" r="24.5" transform="translate(-814.3 1481.2) rotate(-47.2)"/>
        <circle class="cls-6" cx="1179" cy="1713.4" r="28.7" transform="translate(-566.8 2843.8) rotate(-88.4)"/>
        <circle class="cls-6" cx="1082.9" cy="1715.5" r="32.6" transform="translate(-509.2 458.1) rotate(-19.4)"/>
        <circle class="cls-1" cx="1100.4" cy="1286.3" r="32.6" transform="translate(-592 1251.7) rotate(-48.3)"/>
        <circle class="cls-1" cx="1004.3" cy="1288.4" r="28.7" transform="translate(-498.6 648.1) rotate(-29)"/>
        <circle class="cls-1" cx="899.1" cy="1332.2" r="24.5" transform="translate(-532.9 602.6) rotate(-29)"/>
        <path class="cls-1" d="M653.2,1515.7c-13-3.7-20.6-17.3-16.8-30.3,3.7-13,17.3-20.6,30.3-16.8,13,3.7,20.6,17.3,16.8,30.3-3.7,13-17.3,20.6-30.3,16.8Z"/>
        <circle class="cls-1" cx="552.5" cy="1533.7" r="28.7" transform="translate(-674 459.9) rotate(-29)"/>
        <circle class="cls-6" cx="984.3" cy="1690.8" r="32.6" transform="translate(-696 688.8) rotate(-29)"/>
        <circle class="cls-6" cx="906.6" cy="1628.9" r="38" transform="translate(-675.8 643.4) rotate(-29)"/>
        <circle class="cls-6" cx="838.5" cy="1543.4" r="46.4" transform="translate(-642.9 599.7) rotate(-29)"/>
        <circle class="cls-6" cx="783.2" cy="1412.5" r="52.8" transform="translate(-664.2 2129.1) rotate(-87.3)"/>
        <circle class="cls-6" cx="720.9" cy="1279.6" r="46.4" transform="translate(-366.5 292.4) rotate(-18.4)"/>
        <circle class="cls-6" cx="651.9" cy="1187.4" r="38" transform="translate(-493.8 464.6) rotate(-29)"/>
        <circle class="cls-6" cx="571.5" cy="1135" r="32.6" transform="translate(-345.1 254.9) rotate(-19.4)"/>
        <circle class="cls-6" cx="483.4" cy="1109.1" r="32.6" transform="translate(-476.9 373.2) rotate(-29)"/>
      </g>
      <g>
        <path class="cls-2" d="M1806,3568.4c-73-45.2-153.4-50.2-234.6-30.5-56,13.6-110.4,34-165.1,52.5-66,22.3-132.1,43.2-202.2,48.5-100.6,7.7-196.2-9.4-285.4-57-56.6-30.2-100.3-73.7-125.6-133.8-10.5-24.9-13.5-50.9-9.6-77.4,5-34.1,25-71,81.5-76.9-45.2-51.7-127.1-46.8-165.9,10-32.2,47.1-33,99.7-19,152.5,19.3,73.3,63.4,130.4,123.2,175.7,94.7,71.7,203.6,104.9,320.7,112.5,78.1,5.1,155.3-3.6,229.9-27.7,67.7-21.8,134.5-46.1,202.1-68.4,53.5-17.6,107.9-25.5,163.1-7.6,82,26.5,125.1,119.2,92.5,198.2-9.4,22.8-24.5,41.1-44,57.7,74-3.1,136.7-76.1,138.8-151.5,2.2-79-35.6-136.6-100.5-176.8Z"/>
        <path class="cls-2" d="M1350.6,3372.8c-13.9-4.1-27.3-9.9-41.5-15.1-32.3,62.4-15.3,144.8,38.5,187.2,2.5,1.9,6.8,3.5,9.6,2.7,8-2.3,15.5-5.9,23.9-9.3-24.4-54.7-16.4-106.2,13.4-155.4-15.8-3.5-30.1-6-43.9-10Z"/>
      </g>
      <g>
        <path d="M1793.6,743.3h5.5c61.8,0,123.6,0,185.4,0,42,0,77.5,15,105.5,46.3,21.2,23.8,32.9,51.8,34.7,83.8,1.8,32-6.3,61.4-24.7,87.4-22.7,32.1-53.5,52-92.8,57.5-8.2,1.1-16.5,1.5-24.8,1.6-33.8.2-67.7,0-101.5,0-1.9,0-3.8,0-6.1,0v135.9h-81.1v-412.4ZM1874.9,946.7c1.6,0,2.5.2,3.5.2,30.9,0,61.8.2,92.7-.1,7.6,0,15.3-.9,22.7-2.6,16.3-3.6,29.4-12.5,38.5-26.7,6.6-10.3,9-21.7,9.6-33.8,1.7-37.1-24.1-66.2-61.1-67.2-34.5-.9-69-.5-103.4-.6-.8,0-1.5.2-2.4.4v130.4Z"/>
        <path d="M2967.9,926.8h-129.3v229h-79.2v-441.7h79.1v140.5h208.5v301.2h-79v-228.9Z"/>
        <path d="M3277.4,1165.3c-65-2.6-112.9-28.3-145.6-80.4-16.9-27-23.4-57-21.6-88.9,2.6-45.4,22.2-82.2,56.4-111.4,20.7-17.7,44.8-29.3,71.5-34.9,31.2-6.5,62-4.8,92.2,6,29.8,10.6,54.8,28,74.4,52.9,19.8,25.2,31,53.7,33,85.9,1.6,25.9-2.3,50.9-13.1,74.5-10.4,22.8-25.4,42.2-44.9,58-20,16.1-42.4,27.7-67.6,33.1-12.6,2.7-25.6,3.8-34.7,5.1ZM3187.9,1027.7c7.8,40.8,45.5,75.1,94.4,70.7,39.2-3.5,72-35.6,77.3-70.7h-171.8ZM3358.5,979c-8.2-35.7-44.6-71.4-93.9-66.6-41.3,4-70.8,40.2-74.7,66.6h168.6Z"/>
        <path d="M2311.5,1059.9c8.4-18.9,16.6-37.1,24.7-55.4,21.5-48.2,43-96.4,64.3-144.6,1.8-4.1,4-5.3,8.4-5.2,25.4.2,50.7.1,76.9.1-.7,1.9-1.2,3.3-1.8,4.7-42,94.5-83.9,189-125.9,283.4-21.5,48.4-43,96.7-64.4,145.1-1,2.2-1.8,3.7-4.8,3.7-26-.1-52.1,0-78.1,0-.6,0-1.2-.1-2.3-.2,4.1-9.4,8-18.5,12-27.5,15.5-34.9,31-69.7,46.3-104.6.8-1.9.8-4.8,0-6.8-37.8-90.9-75.6-181.8-113.5-272.7-3.4-8.1-6.7-16.1-10.4-24.8,1.9-.2,3.3-.4,4.6-.4,26.2,0,52.4,0,78.6,0,3.2,0,4.8.7,6.1,4,22.6,57.7,45.3,115.3,68,173,3.6,9.2,7.3,18.4,11.2,28.2Z"/>
        <path d="M3640,1064.5c-54.2,32.1-107.2,63.6-160.7,95.4-.2-1.8-.5-3-.5-4.2,0-26,0-52.1-.1-78.1,0-3.3,1.3-5,3.9-6.5,50.9-29.4,101.7-58.8,152.7-88.1,3.4-1.9,4.6-4.1,4.6-8-.2-15.9,0-31.8,0-48.4h-150.5v-71.6h229.6v228.7h62.7v71.9h-141.5v-91.2Z"/>
        <path d="M3806.6,1066.2c2.6-.1,4-.3,5.4-.3,23.7,0,47.5,0,71.2.1,1.8,0,4.6,1.3,5.3,2.7,9.8,21.4,27.5,30.8,49.8,33,15.7,1.6,31.1.3,45.5-7.3,15.4-8.2,20.5-26.7,10.5-39-5.6-6.9-13.8-9.9-22-11.6-19.1-4-38.3-7.3-57.4-10.7-22.1-3.9-43.3-10-62-23-25-17.4-37-41.4-35.9-71.9,1.1-29.3,15.3-51.1,38.6-67.6,24-17,51.3-23.7,80.3-24.4,34.7-.9,67.1,6.7,95.8,26.9,20.7,14.6,35.2,33.9,41.7,58.7.9,3.6,1.3,7.3,2,11.2-1.3.1-2.2.3-3.1.3-23.9,0-47.8,0-71.7,0-1.7,0-4.3-1.1-4.8-2.4-10.4-24.2-30-33.1-54.7-32.6-8.4.2-17.2,1.8-25.1,4.7-12.9,4.7-20,15.6-19.4,27,.7,13.6,9.1,21.6,20.9,25.3,13.3,4.1,27.1,6.7,40.7,9.3,22,4.2,44.2,7.6,64.9,16.6,18.5,8,35.2,18.4,45.5,36.5,13.6,23.9,14,48.8,3.2,73.5-11,25.2-31.1,41.4-56.1,51.2-43.5,17.1-87.7,17.3-131.4,1.4-30.4-11.1-54.7-30.4-68.5-60.7-3.8-8.3-6-17.4-9.1-26.6Z"/>
        <path d="M2600.5,1155.9h-79.6v-5.2c0-119.9,0-239.7,0-359.6,0-2.3.8-5.4,2.4-6.8,24.4-22.5,48.9-44.8,73.4-67.1.8-.8,1.7-1.4,3.4-2.8v140.3h113v71.9h-112.7v229.4Z"/>
      </g>
      <g>
        <path class="cls-6" d="M4652.9,854.4h4c45.2,0,90.3,0,135.5,0,18.5,0,36.7,2.3,53.7,10.4,29.4,13.9,44.9,37,45,69.8,0,19.8-6.1,37.1-21.3,50.5-5,4.4-10.8,8-16.3,12.1,3.6,1.9,7.6,3.8,11.4,6.1,22.2,13.7,34.7,33.5,36.3,59.7,1.3,20-2.9,38.7-14.2,55.5-9.9,14.7-23.5,24.5-39.9,30.7-12.9,4.9-26.5,6.6-40.2,6.6-50.5,0-101,0-151.5,0-.7,0-1.4,0-2.4-.1v-301.4ZM4712.2,1104.4c1.1,0,1.9.1,2.7.1,25.5,0,51.1,0,76.6,0,4.1,0,8.3-.3,12.4-.8,21.4-2.8,35.5-14.5,36.3-36.6.4-11.2-2.4-21.4-10.9-29.4-8.6-8-19.3-11.3-30.6-11.5-28.1-.4-56.3-.3-84.4-.4-.7,0-1.3.2-2.1.3v78.2ZM4712.3,980.1c1.1,0,1.9.1,2.7.1,22.9,0,45.8,0,68.8,0,5.3,0,10.7-.4,15.9-1.3,10.7-1.8,19.9-6.3,25.6-16.1,4.9-8.5,5.4-17.8,4-27.3-.9-6.6-3.5-12.5-8.2-17.4-7.9-8.2-18.1-11.4-29-11.6-25.8-.5-51.5-.3-77.3-.4-.8,0-1.6.1-2.6.2v73.8Z"/>
        <path class="cls-6" d="M4329.9,1155.7v-301.3h4.1c38.5,0,77,0,115.5,0,24.3,0,48.1,3.2,70.5,13.1,30.8,13.7,53.8,35.5,68,66.2,13.5,29.2,17.1,59.9,13.9,91.7-2,19.4-7.1,38-16,55.4-15.1,29.5-38.2,50.3-68.8,63-21.2,8.8-43.4,11.8-66.1,11.9-39.6.2-79.1,0-118.7,0-.7,0-1.4,0-2.4-.1ZM4389.6,1099.9c1.7,0,3.1,0,4.5,0,17,0,34,0,51,0,6,0,12.1-.3,18.1-1.1,36-4.8,61.2-23.6,73.3-58.3,6.2-17.7,6.6-36.1,3.9-54.6-3.3-22.1-12.7-40.8-30.1-55.2-15.8-13.1-34.3-19.2-54.4-19.8-21.4-.7-42.8-.3-64.1-.4-.7,0-1.3.3-2.1.4v189Z"/>
      </g>
      <line class="cls-3" x1="2520.9" y1="1291.7" x2="5090.7" y2="1291.7"/>
      <g>
        <path class="cls-5" d="M2270.4,5229.3v28.3h-19.4v-28.3h19.4Z"/>
        <path class="cls-5" d="M1221.5,5229.3h19.4v28.4h-19.4v-28.4Z"/>
      </g>
      <g>
        <path class="cls-5" d="M2270.4,7339.8v28.3h-19.4v-28.3h19.4Z"/>
        <path class="cls-5" d="M1221.5,7339.8h19.4v28.4h-19.4v-28.4Z"/>
      </g>
    </g>
  </g>
</svg>